<svg width="211" height="43" fill="none" xmlns="http://www.w3.org/2000/svg"><path class="header__logo-path" d="M1.024 11.404h6.552V34H1.024V11.404zM4.3 8.254c-1.204 0-2.184-.35-2.94-1.05C.604 6.504.226 5.636.226 4.6S.604 2.696 1.36 1.996c.756-.7 1.736-1.05 2.94-1.05s2.184.336 2.94 1.008c.756.672 1.134 1.512 1.134 2.52 0 1.092-.378 2.002-1.134 2.73-.756.7-1.736 1.05-2.94 1.05zm38.295 2.814c2.828 0 5.068.84 6.72 2.52 1.68 1.652 2.52 4.144 2.52 7.476V34h-6.552V22.072c0-1.792-.378-3.122-1.134-3.99-.728-.896-1.778-1.344-3.15-1.344-1.54 0-2.758.504-3.654 1.512-.896.98-1.344 2.45-1.344 4.41V34h-6.552V22.072c0-3.556-1.428-5.334-4.284-5.334-1.512 0-2.716.504-3.612 1.512-.896.98-1.344 2.45-1.344 4.41V34h-6.552V11.404h6.258v2.604a8.307 8.307 0 013.066-2.184c1.232-.504 2.576-.756 4.032-.756 1.596 0 3.038.322 4.326.966a7.511 7.511 0 013.108 2.73 9.307 9.307 0 013.486-2.73c1.428-.644 2.982-.966 4.662-.966zm28.469 0c2.1 0 4.004.49 5.712 1.47 1.736.952 3.094 2.31 4.074 4.074.98 1.736 1.47 3.766 1.47 6.09s-.49 4.368-1.47 6.132a10.55 10.55 0 01-4.074 4.074c-1.708.952-3.612 1.428-5.712 1.428-2.884 0-5.152-.91-6.804-2.73v10.542h-6.552V11.404h6.258v2.604c1.624-1.96 3.99-2.94 7.098-2.94zM69.93 28.96c1.68 0 3.052-.56 4.116-1.68 1.092-1.148 1.638-2.674 1.638-4.578 0-1.904-.546-3.416-1.638-4.536-1.064-1.148-2.436-1.722-4.116-1.722-1.68 0-3.066.574-4.158 1.722-1.064 1.12-1.596 2.632-1.596 4.536 0 1.904.532 3.43 1.596 4.578 1.092 1.12 2.478 1.68 4.158 1.68zm38.91-6.174c0 .084-.042.672-.126 1.764H91.62c.308 1.4 1.036 2.506 2.184 3.318 1.148.812 2.576 1.218 4.284 1.218 1.176 0 2.212-.168 3.108-.504.924-.364 1.778-.924 2.562-1.68l3.486 3.78c-2.128 2.436-5.236 3.654-9.324 3.654-2.548 0-4.802-.49-6.762-1.47-1.96-1.008-3.472-2.394-4.536-4.158-1.064-1.764-1.596-3.766-1.596-6.006 0-2.212.518-4.2 1.554-5.964a11.026 11.026 0 014.326-4.158c1.848-1.008 3.906-1.512 6.174-1.512 2.212 0 4.214.476 6.006 1.428 1.792.952 3.192 2.324 4.2 4.116 1.036 1.764 1.554 3.822 1.554 6.174zm-11.718-6.762c-1.484 0-2.73.42-3.738 1.26-1.008.84-1.624 1.988-1.848 3.444h11.13c-.224-1.428-.84-2.562-1.848-3.402-1.008-.868-2.24-1.302-3.696-1.302zm22.338-1.638c.784-1.092 1.834-1.918 3.15-2.478 1.344-.56 2.884-.84 4.62-.84v6.048a23.647 23.647 0 00-1.47-.084c-1.876 0-3.346.532-4.41 1.596-1.064 1.036-1.596 2.604-1.596 4.704V34h-6.552V11.404h6.258v2.982zm11.666-2.982h6.552V34h-6.552V11.404zm3.276-3.15c-1.204 0-2.184-.35-2.94-1.05-.756-.7-1.134-1.568-1.134-2.604s.378-1.904 1.134-2.604c.756-.7 1.736-1.05 2.94-1.05s2.184.336 2.94 1.008c.756.672 1.134 1.512 1.134 2.52 0 1.092-.378 2.002-1.134 2.73-.756.7-1.736 1.05-2.94 1.05zm32.12 3.15V34h-6.216v-2.688a8.917 8.917 0 01-3.108 2.268c-1.204.504-2.506.756-3.906.756-2.968 0-5.32-.854-7.056-2.562-1.736-1.708-2.604-4.242-2.604-7.602V11.404h6.552v11.802c0 3.64 1.526 5.46 4.578 5.46 1.568 0 2.828-.504 3.78-1.512.952-1.036 1.428-2.562 1.428-4.578V11.404h6.552zm35.008-.336c2.828 0 5.068.84 6.72 2.52 1.68 1.652 2.52 4.144 2.52 7.476V34h-6.552V22.072c0-1.792-.378-3.122-1.134-3.99-.728-.896-1.778-1.344-3.15-1.344-1.54 0-2.758.504-3.654 1.512-.896.98-1.344 2.45-1.344 4.41V34h-6.552V22.072c0-3.556-1.428-5.334-4.284-5.334-1.512 0-2.716.504-3.612 1.512-.896.98-1.344 2.45-1.344 4.41V34h-6.552V11.404h6.258v2.604a8.307 8.307 0 013.066-2.184c1.232-.504 2.576-.756 4.032-.756 1.596 0 3.038.322 4.326.966a7.511 7.511 0 013.108 2.73 9.307 9.307 0 013.486-2.73c1.428-.644 2.982-.966 4.662-.966z" fill="#fff"/></svg>