<svg width="28" height="29" fill="none" xmlns="http://www.w3.org/2000/svg"><g clip-path="url(#clip0)" fill="#fff"><path d="M18.175 7.88H9.83a2.418 2.418 0 00-2.416 2.417v8.345a2.419 2.419 0 002.416 2.416h8.345a2.419 2.419 0 002.416-2.416v-8.345a2.419 2.419 0 00-2.416-2.416zm-4.173 10.927a4.343 4.343 0 01-4.337-4.338 4.343 4.343 0 014.337-4.337 4.343 4.343 0 014.338 4.337 4.343 4.343 0 01-4.338 4.338zm4.478-7.779c-.566 0-1.027-.46-1.027-1.026a1.028 1.028 0 012.053 0c0 .566-.46 1.026-1.026 1.026z"/><path d="M14 11.965a2.508 2.508 0 00-2.505 2.504A2.508 2.508 0 0014 16.974a2.508 2.508 0 002.505-2.505A2.508 2.508 0 0014 11.965z"/><path d="M14 .432c-7.732 0-14 6.268-14 14 0 7.731 6.268 14 14 14s14-6.269 14-14c0-7.732-6.268-14-14-14zm8.421 18.21a4.253 4.253 0 01-4.248 4.249H9.827a4.253 4.253 0 01-4.248-4.249v-8.345a4.254 4.254 0 014.248-4.249h8.346a4.253 4.253 0 014.248 4.249v8.345z"/></g><defs><clipPath id="clip0"><path fill="#fff" transform="translate(0 .432)" d="M0 0h28v28H0z"/></clipPath></defs></svg>