<svg width="30" height="29" fill="none" xmlns="http://www.w3.org/2000/svg"><path fill-rule="evenodd" clip-rule="evenodd" d="M29.002 14.216c0 7.85-6.365 14.215-14.216 14.215C6.935 28.431.57 22.067.57 14.216S6.935 0 14.786 0c7.851 0 14.216 6.365 14.216 14.216zM14.799 20.84h-1.116s-2.461.148-4.63-2.11c-2.364-2.461-4.452-7.346-4.452-7.346s-.12-.32.01-.476c.148-.174.548-.185.548-.185l2.667-.017s.252.042.431.174a.834.834 0 01.232.313s.43 1.09 1.002 2.076c1.114 1.925 1.633 2.347 2.011 2.14.551-.3.386-2.722.386-2.722s.01-.878-.277-1.27c-.223-.303-.643-.391-.829-.416-.15-.02.097-.369.416-.525.48-.235 1.328-.249 2.329-.238.78.008 1.005.056 1.31.13.708.17.686.719.638 1.9-.014.353-.03.763-.03 1.236 0 .107-.004.22-.007.337-.017.605-.035 1.298.363 1.555.204.132.704.02 1.954-2.102.592-1.006 1.036-2.189 1.036-2.189s.097-.21.248-.3c.154-.093.362-.065.362-.065l2.807-.017s.844-.1.98.28c.143.4-.315 1.332-1.462 2.86-1.089 1.452-1.618 1.986-1.568 2.458.036.345.38.657 1.04 1.268 1.38 1.283 1.749 1.956 1.837 2.116l.016.029c.618 1.025-.686 1.105-.686 1.105l-2.493.035s-.536.106-1.24-.378c-.37-.253-.73-.666-1.073-1.06-.525-.602-1.01-1.158-1.424-1.027-.695.22-.673 1.718-.673 1.718s.005.32-.154.49c-.172.185-.509.223-.509.223z" fill="#fff"/></svg>